# xmcd
#
# Track frame offsets:
#	150
#	18742
#	38281
#	62345
#	78895
#	100004
#	117495
#	138795
#	158311
#	170672
#
# Disc length: 2442 seconds
#
# Revision: 0
# Processed by: cddbd v1.4PL0 Copyright (c) Steve Scherf et al.
# Submitted via: audiograbber 1.81.02
#
DISCID=6809880a
DTITLE=Chris Laterzo - American River
DYEAR=1990
DGENRE=Country
TTITLE0=Big Medicine
TTITLE1=Around the Sun
TTITLE2=Ballad of an Old Man
TTITLE3=Nomadic Soul
TTITLE4=Silver Rain
TTITLE5=The Pilgrimage
TTITLE6=Melody Maker
TTITLE7=American River
TTITLE8=Teal Eyes
TTITLE9=Lady of Belen
EXTD=
EXTT0=
EXTT1=
EXTT2=
EXTT3=
EXTT4=
EXTT5=
EXTT6=
EXTT7=
EXTT8=
EXTT9=
PLAYORDER=
